 <svg  version="1.0" xmlns="http://www.w3.org/2000/svg"  width="300.000000pt" height="450.000000pt" viewBox="0 0 300.000000 450.000000"  preserveAspectRatio="xMidYMid meet">  <g transform="translate(0.000000,450.000000) scale(0.100000,-0.100000)" fill="#656161" stroke="none"> <path d="M260 4408 c0 -51 5 -205 10 -343 6 -137 15 -394 20 -570 19 -622 39 -1262 45 -1385 3 -69 7 -260 10 -425 3 -165 10 -408 16 -540 7 -132 10 -257 7 -278 -2 -20 -3 -37 -2 -37 2 0 15 5 30 10 21 8 24 14 16 22 -15 15 -16 98 -1 98 5 0 8 -4 5 -9 -3 -4 2 -15 12 -24 69 -64 82 -71 97 -50 8 11 17 11 45 2 19 -6 40 -18 46 -26 16 -19 19 -240 4 -259 -9 -9 -9 -23 -1 -46 20 -66 51 -380 48 -492 -2 -47 1 -56 16 -56 17 0 23 32 19 95 0 11 -1 47 -2 80 -1 33 -6 89 -11 125 -31 212 -34 247 -31 463 2 140 4 167 17 167 9 0 14 -8 12 -21 -1 -15 4 -23 21 -25 12 -2 22 1 22 6 0 6 -7 10 -15 10 -8 0 -15 5 -15 11 0 6 9 8 22 4 22 -6 22 -5 4 9 -10 8 -15 20 -11 26 5 8 11 8 22 -1 12 -11 14 -10 12 2 -4 21 12 83 23 90 19 12 -22 59 -51 58 -25 0 -25 -1 -4 -11 12 -6 24 -16 26 -22 8 -20 -21 -76 -38 -76 -9 0 -14 -4 -10 -10 3 -5 -6 -17 -20 -26 -14 -9 -25 -25 -25 -35 0 -24 -15 -32 -39 -20 -12 7 -21 7 -23 1 -2 -6 -25 -4 -60 4 -57 13 -92 32 -84 45 6 9 -13 111 -28 151 -28 72 -45 137 -50 193 -5 50 -4 57 11 57 10 0 25 5 33 11 11 8 7 9 -17 4 -31 -6 -32 -6 -24 22 5 15 21 55 36 88 44 98 134 350 161 454 32 120 67 201 116 269 55 74 97 99 214 123 289 59 275 54 314 111 19 28 40 57 45 65 7 10 4 18 -12 31 -32 25 -63 83 -63 116 0 52 -24 196 -32 196 -4 0 -8 -6 -8 -12 0 -7 -3 -22 -6 -34 -3 -12 1 -27 9 -36 19 -18 32 -78 18 -78 -6 0 -24 26 -41 58 -22 40 -29 48 -24 27 27 -128 30 -160 27 -255 -2 -58 -9 -109 -14 -115 -9 -9 -104 -33 -137 -34 -7 -1 -17 9 -22 22 -5 12 -9 16 -9 10 -1 -16 -46 -39 -96 -47 -129 -23 -245 -161 -295 -353 -24 -90 -77 -254 -95 -298 -7 -16 -21 -56 -31 -88 -23 -73 -44 -94 -45 -46 0 19 -2 41 -3 49 -2 8 -6 154 -10 324 -4 170 -9 345 -11 390 -2 45 -7 196 -10 336 -3 140 -7 278 -10 305 -2 28 -7 149 -11 270 -3 121 -7 263 -9 315 -2 52 -7 190 -10 305 -4 116 -8 222 -10 236 -2 14 -5 112 -6 218 -3 147 -6 191 -16 191 -10 0 -13 -24 -13 -92z m900 -1788 c0 -10 3 -20 8 -22 4 -1 18 -25 31 -51 l24 -48 -33 -34 c-31 -32 -35 -34 -45 -18 -15 27 -13 202 3 196 6 -3 12 -13 12 -23z"/> <path d="M2934 4385 c-9 -22 1 -29 15 -11 8 10 9 16 1 21 -5 3 -13 -1 -16 -10z"/> <path d="M2949 4058 c0 -7 -2 -28 -5 -45 -2 -18 1 -33 6 -33 6 0 10 20 10 45 0 25 -2 45 -5 45 -3 0 -5 -6 -6 -12z"/> <path d="M2947 3928 c-2 -24 -2 -199 1 -391 3 -229 1 -351 -6 -360 -16 -20 -17 -50 -2 -77 10 -18 15 -63 15 -154 1 -84 5 -131 12 -133 17 -6 4 282 -13 316 -18 33 -17 39 2 43 14 3 15 29 14 216 -1 257 -9 574 -14 579 -2 2 -6 -15 -9 -39z"/> <path d="M1113 3770 c0 -36 2 -50 4 -32 2 17 2 47 0 65 -2 17 -4 3 -4 -33z"/> <path d="M1110 3491 c0 -156 3 -210 11 -205 9 5 10 62 5 208 -4 110 -9 203 -12 205 -2 2 -4 -91 -4 -208z"/> <path d="M1253 3296 c-18 -7 -45 -22 -60 -34 -26 -20 -23 -19 32 5 85 37 104 57 28 29z"/> <path d="M751 3287 c-18 -18 -12 -27 19 -27 19 0 30 5 30 14 0 18 -35 27 -49 13z"/> <path d="M1101 3244 c-21 -27 -29 -60 -12 -49 12 7 42 67 37 72 -2 2 -13 -8 -25 -23z"/> <path d="M1090 3185 c-7 -8 -9 -15 -4 -15 4 0 0 -6 -10 -13 -11 -8 -19 -32 -22 -67 -5 -49 -3 -60 22 -95 15 -22 28 -49 29 -60 1 -11 11 -24 23 -30 11 -5 23 -21 25 -35 3 -17 4 -13 6 13 0 21 -6 51 -14 68 -9 16 -13 34 -10 39 3 6 -3 10 -13 10 -11 0 -24 6 -29 13 -20 24 -1 155 23 164 8 3 14 9 14 14 0 14 -26 10 -40 -6z"/> <path d="M1339 3106 c-7 -14 -15 -26 -18 -26 -4 0 -15 -15 -26 -32 l-18 -33 22 19 c27 25 65 85 58 93 -4 3 -12 -6 -18 -21z"/> <path d="M1530 3013 c-23 -10 -42 -32 -35 -43 3 -5 -2 -10 -12 -10 -15 0 -18 -8 -17 -43 2 -44 27 -87 51 -87 16 0 32 -30 26 -50 -2 -9 1 -7 7 3 10 16 6 25 -26 59 -22 22 -34 42 -29 44 6 3 9 19 7 37 -4 38 5 48 66 67 23 7 42 17 42 22 0 9 -57 10 -80 1z"/> <path d="M1295 2994 c-16 -8 -31 -17 -33 -18 -1 -2 23 -3 55 -2 59 1 87 15 55 28 -27 11 -45 9 -77 -8z"/> <path d="M1750 2984 c-6 -14 -10 -37 -10 -52 1 -25 2 -26 14 -9 13 16 20 87 10 87 -3 0 -9 -12 -14 -26z"/> <path d="M1582 2945 c-11 -13 -10 -15 7 -15 11 0 22 6 25 13 5 10 7 10 12 0 3 -7 13 -13 21 -13 13 0 13 3 3 15 -16 19 -51 19 -68 0z"/> <path d="M1270 2930 c-30 -16 -32 -19 -12 -20 12 0 22 5 22 10 0 6 7 10 16 10 8 0 12 -4 9 -10 -3 -5 3 -10 14 -10 12 0 21 5 21 10 0 6 5 10 10 10 22 0 8 -29 -17 -38 -24 -9 -25 -11 -7 -11 12 -1 32 7 44 17 l23 19 -24 16 c-30 22 -55 21 -99 -3z"/> <path d="M1103 2845 c0 -27 2 -38 4 -22 2 15 2 37 0 50 -2 12 -4 0 -4 -28z"/> <path d="M1755 2825 c0 -47 1 -51 12 -32 6 12 9 33 6 47 -10 46 -18 40 -18 -15z"/> <path d="M1372 2833 c-24 -5 -79 -69 -68 -81 4 -3 22 10 39 30 18 20 41 41 52 47 21 11 16 11 -23 4z"/> <path d="M1390 2785 c-13 -16 -3 -20 24 -9 9 3 13 10 10 15 -8 13 -20 11 -34 -6z"/> <path d="M1472 2788 c-20 -20 -14 -28 13 -16 13 6 22 15 19 19 -7 12 -18 11 -32 -3z"/> <path d="M2959 2733 c-3 -235 9 -834 17 -842 2 -2 4 197 4 442 0 291 -3 447 -10 447 -5 0 -10 -21 -11 -47z"/> <path d="M1490 2748 c0 -5 -6 -6 -12 -2 -10 6 -10 4 0 -8 8 -10 30 -16 58 -16 34 -1 50 -7 64 -24 11 -13 19 -18 20 -12 0 6 -7 17 -16 25 -21 18 -114 48 -114 37z"/> <path d="M1364 2732 c-48 -15 -78 -57 -54 -72 20 -13 116 -16 203 -7 28 2 56 12 65 22 16 17 16 17 -3 10 -66 -25 -205 -35 -205 -15 0 9 16 12 102 15 21 0 41 4 45 9 9 9 -115 2 -162 -9 l-30 -7 25 21 c15 12 40 21 63 21 26 0 37 4 37 15 0 17 -26 17 -86 -3z"/> <path d="M1310 2605 c-7 -8 -9 -15 -4 -15 5 0 0 -7 -10 -15 -11 -8 -14 -15 -8 -15 7 0 11 -5 10 -11 -2 -6 3 -14 11 -17 8 -3 11 0 7 7 -4 6 0 14 8 17 17 7 22 49 7 58 -5 3 -14 -1 -21 -9z"/> <path d="M1416 2595 c7 -16 30 -20 38 -6 3 4 16 6 30 4 13 -3 27 0 30 6 5 7 -11 11 -48 11 -45 0 -54 -3 -50 -15z"/> <path d="M1300 2505 c0 -1 23 -16 51 -35 35 -22 65 -34 97 -36 26 -1 37 -1 25 2 -13 3 -23 10 -23 16 0 5 -7 8 -15 4 -8 -3 -15 -1 -15 5 0 6 -4 7 -10 4 -5 -3 -10 -1 -10 4 0 6 -8 11 -19 11 -10 0 -24 6 -30 14 -9 11 -51 19 -51 11z"/> <path d="M1700 2507 c0 -2 11 -18 25 -37 14 -19 30 -50 35 -70 8 -31 16 -37 62 -54 122 -42 287 -107 336 -132 102 -52 161 -153 228 -389 9 -33 27 -87 39 -120 38 -99 47 -167 40 -271 -6 -76 -4 -108 11 -164 15 -58 16 -76 6 -103 -7 -19 -12 -58 -12 -88 0 -40 -9 -73 -34 -126 -18 -40 -35 -71 -37 -68 -3 2 -6 -6 -6 -18 -3 -27 -29 -47 -64 -47 -23 0 -26 4 -23 23 3 16 1 15 -7 -5 -14 -37 -47 -37 -91 -1 -44 37 -54 50 -83 106 -23 42 -24 47 -8 48 16 0 15 2 -2 9 -14 6 -15 9 -5 10 8 1 -1 6 -20 13 -37 13 -59 54 -23 44 10 -3 36 -8 58 -11 31 -5 36 -4 22 5 -10 6 -40 12 -66 14 -27 1 -59 8 -72 15 -22 11 -21 10 3 -12 21 -17 28 -34 31 -68 3 -35 5 -40 11 -23 8 21 8 21 27 2 13 -13 19 -33 19 -67 0 -27 7 -71 15 -98 8 -27 15 -65 15 -83 0 -23 3 -32 10 -25 13 13 13 48 2 101 -10 48 -2 54 31 22 41 -40 81 -50 148 -40 34 6 63 12 65 14 10 10 94 199 99 224 23 113 5 557 -27 643 -11 30 -28 84 -38 120 -10 36 -25 89 -34 119 -9 30 -16 67 -16 81 0 15 -8 34 -19 44 -10 9 -28 37 -41 61 -46 90 -133 149 -285 196 -22 7 -58 20 -80 29 -22 10 -60 24 -83 31 -24 7 -51 23 -60 37 -10 13 -29 38 -44 55 -16 17 -28 34 -28 38 0 4 -7 9 -15 13 -8 3 -15 4 -15 3z"/> <path d="M1695 2435 c4 -35 -1 -72 -15 -125 -12 -41 -22 -79 -23 -85 -2 -5 -9 -21 -17 -35 -8 -14 -14 -28 -15 -32 0 -13 -75 -97 -108 -122 -17 -13 -43 -27 -57 -31 -23 -5 -28 0 -57 57 -18 35 -40 73 -49 86 -12 16 -13 22 -4 22 9 0 9 5 -3 18 -28 31 -81 165 -87 222 -6 49 -7 52 -17 31 -10 -25 -2 -97 16 -136 21 -46 40 -92 50 -118 6 -15 15 -27 21 -27 5 0 10 -5 10 -12 0 -7 12 -29 26 -50 22 -31 24 -40 14 -53 -11 -13 -10 -14 4 -9 19 7 22 -12 4 -20 -7 -3 -5 -4 5 -3 13 1 30 -17 57 -61 l39 -64 19 39 c24 47 95 163 131 214 15 20 35 59 45 86 9 26 21 56 27 65 15 29 10 150 -7 173 -14 19 -15 17 -9 -30z"/> <path d="M1763 2319 c9 -5 17 -18 17 -28 0 -10 7 -24 15 -31 16 -13 18 -113 2 -103 -5 3 -3 -4 5 -16 7 -12 17 -21 22 -21 4 0 6 -13 4 -29 -5 -32 6 -33 15 -2 2 11 -1 31 -9 46 -7 14 -9 23 -4 20 13 -8 12 1 -2 26 -10 17 -10 23 0 26 17 7 15 30 -4 37 -9 3 -14 13 -11 20 7 17 -33 66 -53 66 -11 -1 -11 -3 3 -11z"/> <path d="M1073 2275 c0 -22 2 -30 4 -17 2 12 2 30 0 40 -3 9 -5 -1 -4 -23z"/> <path d="M862 2263 c-1 -17 -8 -34 -14 -36 -10 -4 -10 -6 0 -6 29 -2 8 -20 -30 -26 -24 -4 -50 -12 -58 -17 -15 -10 19 -6 73 7 24 7 25 6 29 -67 3 -45 0 -76 -6 -80 -8 -5 -7 -8 1 -8 6 0 14 -8 16 -17 4 -17 5 -17 6 0 1 10 9 17 21 17 11 0 20 4 20 9 0 5 -8 7 -19 4 -15 -4 -19 3 -24 34 -12 68 -8 110 8 110 11 0 15 -13 17 -46 l1 -46 4 43 c4 39 6 42 36 43 27 2 28 2 7 6 -49 9 -45 23 7 23 50 0 88 -19 41 -21 -22 0 -22 -1 -3 -9 11 -5 30 -9 43 -9 20 -1 22 3 20 52 l-2 52 -3 -47 c-2 -27 -8 -48 -13 -48 -5 0 -7 6 -4 14 6 16 -24 26 -83 26 -43 0 -43 0 -45 38 -1 36 -1 36 -5 5 -2 -18 -8 -33 -14 -33 -5 0 -9 -5 -9 -11 0 -5 5 -7 10 -4 6 3 10 1 10 -4 0 -6 -7 -11 -14 -11 -11 0 -16 14 -19 48 -2 30 -4 35 -5 15z"/> <path d="M1236 2251 l-6 -39 -42 5 c-30 3 -49 0 -63 -11 -19 -15 -18 -16 10 -5 30 10 95 4 95 -9 0 -4 -22 -5 -48 -4 -38 3 -51 0 -62 -15 -12 -15 -12 -16 0 -5 28 24 122 10 106 -17 -4 -6 -2 -11 3 -11 6 0 12 12 13 28 0 15 4 5 8 -23 4 -28 8 -38 8 -22 2 18 8 27 20 27 16 1 16 1 -1 11 -9 6 -15 14 -12 20 4 5 -1 12 -9 15 -12 5 -14 16 -9 50 7 54 -2 59 -11 5z"/> <path d="M1930 2216 c0 -46 3 -56 20 -61 11 -3 20 -11 20 -16 0 -6 -7 -6 -19 1 -11 5 -33 10 -50 10 -16 0 -33 4 -36 10 -4 6 7 8 27 4 l33 -5 -34 15 c-41 20 -38 20 -37 -6 1 -19 8 -24 39 -26 l38 -3 -5 -62 -5 -62 11 53 c8 39 15 52 28 52 22 0 27 21 19 85 l-6 50 -1 -47 c-2 -39 -5 -46 -18 -41 -12 4 -15 17 -12 54 1 27 0 49 -4 49 -5 0 -8 -24 -8 -54z"/> <path d="M1731 2193 c-1 -24 1 -43 3 -43 8 0 12 48 5 66 -5 13 -8 7 -8 -23z"/> <path d="M765 2210 c-14 -7 -8 -8 20 -3 22 3 42 7 44 9 9 8 -45 2 -64 -6z"/> <path d="M1070 2200 c0 -11 4 -20 9 -20 6 0 9 9 8 20 -1 11 -5 20 -9 20 -4 0 -8 -9 -8 -20z"/> <path d="M2140 2152 l0 -38 -47 7 c-27 4 -61 11 -78 14 -30 6 -30 6 4 -10 18 -8 47 -15 63 -15 l30 0 -7 -67 c-4 -38 -9 -71 -11 -74 -2 -4 -28 0 -59 9 -48 13 -55 19 -56 41 -2 23 -2 23 -6 4 -3 -16 -13 -23 -36 -26 l-32 -4 33 -1 c20 -1 32 -7 32 -16 0 -8 7 -17 16 -20 26 -10 29 -7 8 9 -18 13 -18 14 6 8 86 -19 99 -24 94 -38 -7 -18 -72 -11 -117 12 -27 14 -28 13 -22 -6 4 -12 2 -21 -4 -21 -6 0 -11 9 -11 20 0 11 -7 20 -15 20 -9 0 -42 8 -75 17 -58 18 -59 19 -58 53 0 19 5 40 10 47 6 7 1 17 -14 27 -29 20 -48 20 -48 0 0 -20 -115 -131 -161 -155 -61 -31 -107 -93 -115 -156 -3 -29 -4 -57 0 -60 3 -4 7 5 7 18 1 18 3 16 10 -11 6 -30 7 -26 6 23 -2 42 2 57 11 57 8 0 16 9 19 20 5 21 53 30 53 10 0 -5 -6 -10 -14 -10 -8 0 -18 -5 -22 -11 -4 -8 1 -9 16 -4 l22 7 -5 -163 c-4 -90 -6 -175 -7 -188 l0 -23 -122 6 c-68 3 -128 5 -135 6 -8 0 -13 23 -16 63 -3 58 -3 57 -5 -19 -2 -64 -5 -81 -17 -81 -8 0 -15 7 -15 14 0 8 5 11 10 8 6 -3 10 -1 10 4 0 6 -4 11 -10 11 -6 0 -10 27 -10 60 0 33 -4 60 -8 60 -5 0 -6 -27 -4 -60 5 -68 7 -66 -80 -73 l-57 -5 -4 71 -3 72 -2 -72 -2 -72 -60 -12 c-76 -15 -72 -23 4 -11 l57 9 -7 -30 c-4 -22 -3 -28 6 -22 6 4 31 7 53 6 23 0 56 2 72 6 l30 6 -25 8 c-19 5 -12 7 26 8 43 1 52 4 50 19 -1 15 10 17 118 13 66 -2 126 -5 135 -6 9 -2 24 -4 34 -4 9 -1 17 -6 17 -12 0 -6 -13 -8 -35 -5 -36 6 -50 -8 -17 -18 9 -2 -54 -3 -140 -1 -128 3 -157 1 -162 -10 -4 -12 9 -14 72 -13 42 1 187 -2 321 -6 208 -8 243 -7 239 5 -2 8 -23 21 -46 29 l-42 14 0 79 c0 69 2 78 16 73 9 -4 36 -11 60 -17 l44 -11 0 -63 c0 -34 -3 -65 -7 -69 -10 -10 -11 -46 -1 -46 4 0 8 8 8 18 0 14 2 15 10 2 7 -10 8 12 4 70 -4 47 -3 82 1 78 4 -3 8 -30 10 -60 16 -339 16 -336 44 -347 14 -5 33 -9 41 -9 8 1 33 -2 55 -5 l40 -6 -35 14 -35 13 63 1 c43 1 61 -2 57 -10 -4 -6 2 -5 14 3 12 7 21 19 21 26 0 7 -4 11 -9 8 -16 -10 -166 -16 -196 -8 -55 15 -38 29 57 47 136 26 159 26 188 0 14 -12 38 -27 54 -32 67 -21 94 -124 53 -202 -9 -19 -15 -37 -12 -39 3 -3 5 -1 5 5 0 6 9 13 19 16 26 6 40 91 28 160 -6 34 -67 87 -107 93 -37 6 -38 7 -33 41 5 27 2 38 -10 45 -10 5 -17 15 -17 23 0 20 -22 65 -32 65 -13 0 -9 -22 8 -55 9 -16 17 -42 18 -57 2 -23 -2 -28 -20 -28 -12 0 -24 6 -27 13 -3 9 -7 9 -20 -2 -22 -18 -158 -44 -170 -32 -5 5 -7 17 -5 27 4 21 132 76 161 70 10 -3 17 0 15 6 -6 18 -32 17 -89 -3 -68 -23 -93 -24 -85 -3 3 9 6 19 6 24 0 5 8 11 18 14 9 3 2 4 -15 2 l-33 -2 4 70 c3 45 1 64 -4 51 -8 -18 -9 -18 -9 5 -1 46 10 52 62 34 l47 -16 0 -58 c0 -45 -4 -62 -17 -70 -17 -11 -17 -11 0 -6 11 3 17 0 17 -9 0 -19 -2 -19 45 5 40 21 39 23 -7 20 -28 -1 -28 -1 -26 57 l1 58 7 -55 7 -55 1 48 c2 50 7 54 47 35 21 -9 26 -18 23 -42 -2 -24 1 -32 17 -35 16 -3 17 -1 7 11 -10 12 -5 20 25 41 21 15 33 27 27 27 -7 0 -17 -7 -24 -15 -7 -8 -19 -15 -27 -15 -12 0 -13 11 -8 58 7 55 23 82 51 82 15 0 33 -51 36 -107 2 -22 6 -39 9 -37 4 2 10 -7 13 -21 8 -32 23 -32 38 0 8 18 8 28 -1 39 -11 13 -7 18 21 30 18 8 26 15 18 15 -8 1 -31 -9 -50 -20 -19 -12 -29 -15 -22 -8 6 7 12 21 12 31 0 12 13 20 43 28 58 15 65 18 42 19 -30 1 -95 -19 -96 -29 -1 -6 -2 -14 -3 -19 0 -5 -5 -13 -11 -18 -5 -4 -7 -4 -3 0 3 5 0 27 -8 50 -16 44 -10 95 8 63 5 -9 7 -25 3 -35 -3 -12 0 -18 10 -18 18 0 18 0 0 44 -8 19 -15 37 -15 38 0 5 112 67 114 63 2 -2 9 -30 16 -62 8 -33 16 -54 18 -48 2 6 -1 27 -7 46 -5 22 -6 38 0 42 5 3 9 11 9 17 0 7 -4 6 -10 -3 -8 -12 -10 -10 -10 8 0 20 -4 22 -22 17 -13 -4 -32 -15 -43 -25 -24 -21 -65 -35 -65 -22 0 5 27 22 60 38 32 16 62 35 64 42 3 7 2 11 -3 8 -13 -8 -32 42 -26 72 3 15 2 21 -1 13 -4 -9 -15 6 -29 40 -22 51 -25 81 -5 49 7 -11 9 -9 7 8 -1 13 -6 21 -14 18 -7 -3 -10 1 -7 8 3 7 0 23 -5 37 -8 20 -10 14 -10 -33 -1 -37 -6 -62 -17 -72 -8 -9 -12 -16 -7 -16 5 0 9 -23 11 -51 1 -27 -2 -48 -7 -45 -11 7 -21 -44 -15 -75 5 -19 4 -21 -5 -9 -9 12 -11 10 -11 -11 0 -54 -12 -87 -33 -93 -29 -7 -36 3 -13 20 11 8 15 14 9 14 -8 0 -9 10 -1 36 5 20 7 53 3 72 -5 28 -4 34 9 29 19 -7 11 22 -11 40 -9 7 -11 13 -4 18 6 3 11 1 11 -5 0 -6 5 -8 10 -5 6 3 10 0 10 -7 0 -10 2 -10 9 1 7 11 9 11 14 0 4 -9 6 -8 6 5 1 12 -4 16 -14 12 -9 -3 -15 0 -15 10 0 8 4 13 9 10 5 -4 7 3 4 14 -5 19 -6 20 -19 3 -12 -16 -13 -14 -7 16 5 26 3 32 -6 26 -10 -6 -11 -3 -2 13 6 12 11 25 10 29 -3 18 2 34 9 30 4 -3 7 5 7 18 0 15 -4 20 -11 14 -7 -6 -9 1 -6 21 2 16 8 27 13 25 9 -6 4 48 -6 65 -3 5 -11 10 -17 10 -7 0 -6 -6 2 -15 7 -8 8 -15 3 -15 -5 0 -9 -10 -9 -22 -1 -114 -10 -138 -47 -121 -22 10 -23 14 -16 65 4 29 8 60 8 70 1 11 8 15 24 12 20 -4 20 -3 -3 7 l-25 12 25 6 25 7 -24 6 c-19 6 -22 11 -17 32 4 15 2 26 -4 26 -5 0 -10 -17 -10 -38z m-4 -79 c-3 -16 -8 -58 -12 -95 -3 -38 -9 -68 -13 -68 -3 0 -2 43 3 95 5 52 13 95 18 95 5 0 7 -12 4 -27z m-372 -29 c22 -8 20 -25 -1 -18 -15 5 -15 3 2 -11 20 -17 20 -17 -5 -10 -14 4 -32 11 -40 16 -12 7 -12 8 3 9 10 0 15 5 12 10 -7 11 6 13 29 4z m-30 -40 c13 -5 16 -22 16 -81 0 -67 -2 -74 -17 -69 -9 4 -38 9 -63 11 -40 4 -39 3 18 -11 34 -8 62 -20 62 -26 0 -6 -9 -8 -22 -4 -13 4 -42 10 -65 13 l-43 6 0 48 c0 32 5 53 16 61 8 7 25 23 36 36 22 23 35 26 62 16z m45 -84 c0 -38 -5 -70 -10 -70 -5 0 -9 32 -9 70 0 39 4 70 10 70 5 0 9 -31 9 -70z m103 37 l47 -11 -5 -46 c-3 -25 -7 -64 -10 -87 l-5 -42 -41 15 c-64 22 -79 16 -18 -9 45 -18 56 -27 61 -52 l7 -30 1 28 c1 28 14 36 27 16 3 -6 1 -15 -6 -19 -8 -5 -9 -13 -4 -21 4 -8 7 -30 6 -49 -2 -32 -1 -33 8 -11 6 14 10 32 9 40 -5 52 0 62 29 55 15 -4 32 -10 37 -14 6 -4 24 -11 42 -14 l31 -7 -3 -72 c-3 -60 -2 -65 5 -32 5 22 9 54 9 72 1 25 5 31 16 27 8 -4 15 -4 15 -1 0 6 -104 42 -167 58 -29 7 -53 17 -53 21 0 10 62 0 100 -15 14 -6 29 -9 34 -8 4 1 14 -3 21 -9 10 -8 14 7 20 75 4 47 10 85 15 85 4 0 6 -17 4 -37 -11 -114 -11 -133 0 -133 7 0 10 19 8 55 -5 71 4 105 26 106 16 1 16 2 0 6 -17 4 -26 43 -10 43 28 -1 50 -14 49 -31 -1 -10 -5 -19 -10 -19 -4 0 -5 -5 -2 -10 3 -6 3 -42 -1 -80 -5 -51 -10 -70 -21 -70 -12 0 -11 -3 3 -17 9 -9 13 -18 8 -20 -5 -2 -8 -21 -6 -43 2 -23 1 -61 -3 -85 l-6 -45 -35 15 c-19 8 -34 10 -34 4 0 -5 4 -9 9 -9 5 0 22 -5 38 -11 22 -8 24 -12 13 -19 -10 -7 -11 -10 -2 -10 6 0 12 -4 12 -9 0 -17 -60 10 -61 27 0 11 -2 12 -6 5 -12 -31 -19 -9 -12 40 4 28 7 72 7 97 0 40 -2 37 -9 -19 -4 -35 -10 -65 -13 -68 -7 -7 -100 27 -108 40 -7 11 -13 -22 -9 -46 1 -5 -6 -6 -16 -3 -94 26 -133 42 -133 52 0 7 -5 14 -10 16 -14 4 -22 178 -10 178 6 0 10 -37 10 -83 l0 -83 68 -22 c79 -26 86 -26 75 -9 -4 6 -6 20 -5 30 2 9 -2 17 -7 17 -6 0 -11 -10 -11 -21 0 -23 2 -23 -72 3 l-38 13 0 92 c0 51 1 93 3 93 2 0 25 -7 51 -16 26 -9 50 -14 53 -11 3 3 -20 13 -51 22 l-56 16 0 71 c0 68 1 70 23 64 12 -4 43 -12 69 -19z m-272 -65 c0 -37 -4 -49 -15 -49 -11 0 -15 11 -14 46 l2 46 7 -40 7 -40 2 43 c2 58 11 53 11 -6z m439 23 l43 -7 -6 -37 c-3 -20 -6 -55 -6 -77 l0 -42 -37 14 c-21 7 -48 13 -60 14 -13 0 -23 5 -23 11 0 5 -4 7 -10 4 -6 -4 -10 7 -9 27 1 30 2 31 8 8 6 -20 9 -11 15 38 6 53 10 62 24 58 9 -2 37 -8 61 -11z m-479 -25 c0 -16 -7 -20 -31 -20 l-31 0 23 20 c31 25 39 25 39 0z m769 -85 c12 -35 21 -67 21 -69 0 -7 -81 -48 -85 -44 -2 2 0 22 5 43 5 22 10 58 11 80 4 78 21 75 48 -10z m-752 -97 c-2 -24 -4 -5 -4 42 0 47 2 66 4 43 2 -24 2 -62 0 -85z m20 0 c-2 -24 -4 -5 -4 42 0 47 2 66 4 43 2 -24 2 -62 0 -85z m86 111 l57 -12 0 -79 c0 -72 -2 -79 -17 -73 -10 4 -39 10 -65 12 l-48 6 0 78 c0 44 4 79 8 79 5 0 34 -5 65 -11z m43 -176 c15 -3 20 -10 17 -23 -4 -15 -10 -17 -36 -9 -18 5 -47 9 -64 9 -18 0 -33 4 -33 9 0 5 21 7 48 5 l47 -3 -44 9 c-24 5 -47 12 -50 16 -6 6 71 -2 115 -13z m-135 -38 c5 4 8 -13 8 -37 l-2 -43 -7 35 -7 35 -2 -30 c0 -17 3 -35 8 -40 5 -6 11 -21 14 -35 2 -14 5 8 6 48 l1 72 58 -6 c31 -4 62 -10 67 -14 6 -5 9 -41 7 -83 l-3 -74 -42 8 c-24 4 -62 9 -85 12 -23 2 -44 6 -47 9 -2 2 -1 44 3 93 3 50 8 80 10 67 2 -12 8 -20 13 -17z m179 -95 c0 -44 -4 -80 -8 -80 -4 0 -9 12 -10 28 -3 31 7 132 14 132 2 0 4 -36 4 -80z m237 49 c37 -11 55 -30 21 -22 -23 5 -23 5 -3 -11 18 -14 16 -15 -30 -1 -27 8 -51 15 -52 15 -2 0 -3 9 -3 21 0 16 4 19 18 14 9 -4 31 -11 49 -16z m285 -146 c-9 -14 -10 -14 -16 5 -9 29 3 51 16 28 5 -10 5 -23 0 -33z m-1062 27 c0 -5 -10 -10 -23 -10 -13 0 -27 -3 -30 -6 -4 -4 -25 -8 -47 -10 -30 -3 -40 0 -40 10 0 15 27 22 98 25 23 0 42 -3 42 -9z m498 -15 c6 -3 12 -9 12 -15 0 -12 -122 -9 -132 5 -14 19 5 25 55 19 29 -3 58 -7 65 -9z m77 -25 c4 -6 -7 -10 -24 -10 -17 0 -31 4 -31 8 0 11 48 13 55 2z"/> <path d="M1878 1721 c-4 -13 -4 -37 -1 -53 l6 -29 12 23 c6 13 8 28 4 33 -4 6 -9 19 -11 30 -3 18 -4 18 -10 -4z"/> <path d="M2011 1686 c-8 -9 -11 -19 -7 -23 9 -9 29 13 24 27 -2 8 -8 7 -17 -4z"/> <path d="M2010 2161 c0 -11 17 -16 83 -25 20 -2 37 -1 37 5 0 5 -18 9 -41 9 -22 0 -49 5 -60 10 -13 7 -19 7 -19 1z"/> <path d="M708 2153 c-12 -3 -18 -14 -18 -34 0 -19 -5 -29 -15 -29 -8 0 -15 -4 -15 -10 0 -24 36 -3 42 25 3 13 12 -3 27 -48 24 -71 22 -81 -18 -114 -9 -8 -10 -13 -4 -13 7 0 15 5 18 10 3 6 12 10 18 10 7 -1 -1 -12 -18 -26 -22 -18 -24 -23 -10 -19 20 7 20 6 1 -9 -24 -20 0 -22 25 -3 25 19 24 119 -1 175 -22 48 -28 90 -10 62 8 -12 10 -11 10 8 0 22 -2 23 -32 15z"/> <path d="M1049 2105 c-2 -63 -2 -65 -19 -76 -13 -9 -12 -10 3 -5 9 3 17 2 17 -3 0 -22 -125 -30 -133 -8 -3 6 -6 3 -7 -8 -1 -20 -1 -20 -10 0 -7 15 -9 16 -9 4 -1 -13 -15 -18 -56 -24 -30 -3 -58 -11 -61 -17 -5 -8 1 -9 17 -4 37 11 252 35 261 30 4 -3 8 31 8 75 0 85 -9 114 -11 36z"/> <path d="M793 2100 c0 -25 2 -35 4 -22 2 12 2 32 0 45 -2 12 -4 2 -4 -23z"/> <path d="M1070 2105 c0 -8 5 -15 10 -15 6 0 10 7 10 15 0 8 -4 15 -10 15 -5 0 -10 -7 -10 -15z"/> <path d="M1163 2102 c-19 -2 -37 -11 -43 -22 -9 -16 -5 -19 31 -25 22 -4 43 -4 46 -1 4 3 -4 6 -17 6 -28 0 -24 5 11 13 24 6 25 5 27 -41 1 -26 5 -68 8 -94 l6 -47 -39 -6 c-62 -11 -97 -26 -43 -19 25 3 53 8 63 10 11 4 17 0 17 -10 0 -11 -10 -16 -32 -17 -18 -1 -46 -5 -63 -10 -20 -5 -9 -6 33 -2 l62 5 0 -76 c0 -54 -4 -76 -12 -77 -48 -5 -71 -9 -77 -15 -3 -4 15 -4 42 -2 26 3 47 2 47 -3 0 -5 -15 -10 -32 -10 l-33 -2 35 -7 c19 -4 28 -8 20 -9 -10 -1 -11 -4 -4 -9 6 -4 14 -14 17 -22 4 -12 6 -12 6 2 1 12 8 15 26 12 23 -4 24 -2 18 27 -6 32 -6 32 27 26 18 -4 49 -7 70 -7 30 0 39 -4 43 -21 5 -20 3 -20 -60 -13 -43 4 -64 3 -60 -3 4 -6 30 -11 59 -12 55 -1 63 -5 72 -36 3 -11 3 24 0 78 -7 131 2 207 25 201 10 -3 7 1 -6 12 -13 9 -23 27 -23 40 0 13 -4 24 -9 24 -6 0 -6 -12 -1 -31 9 -31 9 -31 -22 -25 -17 3 -50 6 -73 6 l-43 0 -10 73 -10 72 5 -87 c5 -77 3 -88 -11 -88 -9 0 -16 5 -16 11 0 5 5 7 10 4 6 -4 10 7 9 27 -1 30 -2 31 -8 8 -7 -23 -8 -21 -14 15 -4 22 -7 57 -7 78 l0 39 58 -6 c41 -4 62 -1 76 9 11 8 16 18 11 22 -4 5 -10 2 -12 -4 -7 -20 -61 -16 -74 6 -7 10 -20 16 -30 14 -9 -3 -28 1 -40 9 -13 8 -39 12 -56 10z m214 -228 l53 -7 -7 -91 c-3 -50 -7 -92 -8 -94 -1 -2 -32 0 -69 4 l-66 7 0 78 0 79 73 -5 c58 -3 64 -3 32 5 -22 5 -55 9 -72 9 -18 1 -33 6 -33 11 0 12 24 12 97 4z m-107 -104 c0 -61 -3 -77 -15 -77 -12 0 -15 16 -15 77 0 61 3 77 15 77 12 0 15 -16 15 -77z m-9 -105 c7 19 8 19 8 -2 1 -14 -5 -23 -14 -23 -9 0 -15 9 -14 23 1 20 2 20 7 2 5 -20 5 -20 13 0z"/> <path d="M1253 1770 c0 -36 2 -50 4 -32 2 17 2 47 0 65 -2 17 -4 3 -4 -33z"/> <path d="M2258 2085 c-4 -4 -4 -13 -2 -20 3 -7 1 -16 -5 -20 -17 -10 -13 -28 5 -21 8 3 12 2 9 -3 -3 -5 -1 -12 5 -16 6 -4 10 4 9 17 -2 35 -13 70 -21 63z"/> <path d="M2017 2052 c-21 -24 -24 -50 -3 -33 12 10 29 51 22 51 -2 0 -10 -8 -19 -18z"/> <path d="M647 1992 c-13 -149 -14 -197 -6 -177 6 12 7 -3 3 -40 -3 -33 -10 -68 -15 -78 -8 -14 -5 -19 17 -27 17 -7 24 -15 20 -25 -3 -8 -1 -17 4 -20 11 -7 33 -141 27 -166 -3 -10 -1 -22 4 -25 5 -3 5 -14 -2 -25 -8 -17 -7 -23 8 -35 17 -12 17 -13 1 -14 -10 0 -18 5 -18 10 0 6 -9 10 -20 10 -30 0 -24 -26 10 -40 17 -7 30 -17 30 -22 0 -6 -6 -5 -15 2 -8 6 -19 10 -24 8 -5 -1 1 -10 12 -19 15 -11 29 -14 44 -8 18 7 20 12 14 41 -4 18 -3 47 2 63 11 37 12 308 1 326 -4 8 -9 20 -10 29 -7 45 -24 81 -24 51 0 -7 -3 -10 -7 -8 -5 3 -9 -7 -9 -21 -1 -15 1 -21 3 -14 8 21 21 13 21 -13 0 -13 -4 -23 -8 -20 -3 2 -7 -9 -7 -26 l0 -29 18 27 19 28 -6 -35 c-3 -19 -1 -68 4 -107 4 -40 7 -73 5 -73 -3 0 -12 4 -22 10 -18 9 -27 52 -37 185 -1 22 -5 50 -8 62 -7 32 -9 141 -3 196 2 26 0 50 -4 53 -5 3 -7 9 -4 14 3 5 1 11 -4 14 -5 3 -11 -25 -14 -62z m23 -272 c0 -30 -4 -40 -16 -40 -12 0 -14 7 -9 33 13 60 25 64 25 7z m65 -248 c-2 -15 -5 -36 -6 -47 -1 -11 -5 -4 -8 15 -4 19 -2 38 2 41 5 4 4 10 -2 13 -6 4 -11 12 -11 18 0 7 5 6 14 -1 8 -7 13 -24 11 -39z"/> <path d="M940 2038 c0 -10 51 -10 68 0 7 5 -4 8 -28 8 -22 0 -40 -4 -40 -8z"/> <path d="M1078 1952 c3 -69 1 -89 -10 -90 -7 -1 -33 -5 -58 -10 -25 -6 -65 -12 -90 -16 -76 -9 -160 -33 -160 -46 0 -4 18 -2 40 6 22 8 56 16 77 19 48 6 142 24 166 31 11 3 17 0 17 -10 0 -11 -10 -16 -27 -17 -16 -1 -39 -5 -53 -10 -17 -6 -9 -7 27 -3 l52 6 4 -69 3 -68 2 73 c2 56 5 72 17 72 8 0 15 5 15 11 0 6 -7 9 -15 5 -8 -3 -15 -1 -15 4 0 6 6 10 13 10 9 0 11 20 9 79 -4 70 -2 80 14 84 17 4 17 5 2 6 -10 0 -18 6 -18 11 0 6 -3 10 -7 10 -5 0 -6 -40 -5 -88z"/> <path d="M1145 2030 c-14 -7 -8 -8 20 -3 22 3 42 7 44 9 9 8 -45 2 -64 -6z"/> <path d="M775 2020 c-4 -6 6 -7 27 -3 44 8 48 13 10 13 -17 0 -34 -4 -37 -10z"/> <path d="M1840 2015 c46 -18 74 -17 35 0 -16 8 -39 14 -50 14 -13 0 -8 -5 15 -14z"/> <path d="M953 2013 c9 -2 25 -2 35 0 9 3 1 5 -18 5 -19 0 -27 -2 -17 -5z"/> <path d="M790 2000 c-13 -9 -13 -10 0 -9 8 1 26 5 40 9 l25 8 -25 1 c-14 0 -32 -4 -40 -9z"/> <path d="M2242 1948 c-12 -23 -20 -43 -18 -46 3 -2 14 15 26 38 28 55 21 61 -8 8z"/> <path d="M883 1920 c0 -25 2 -35 4 -22 2 12 2 32 0 45 -2 12 -4 2 -4 -23z"/> <path d="M923 1905 c0 -27 2 -38 4 -22 2 15 2 37 0 50 -2 12 -4 0 -4 -28z"/> <path d="M902 1910 c0 -19 2 -27 5 -17 2 9 2 25 0 35 -3 9 -5 1 -5 -18z"/> <path d="M2973 1800 c0 -41 2 -58 4 -37 2 20 2 54 0 75 -2 20 -4 3 -4 -38z"/> <path d="M890 1798 c-14 -4 -45 -13 -69 -19 -23 -6 -41 -13 -38 -15 3 -3 22 -1 43 5 22 5 54 12 72 15 l34 5 -4 -64 c-2 -35 0 -61 4 -57 4 4 8 36 9 71 3 69 -2 75 -51 59z"/> <path d="M1083 1745 c0 -38 2 -53 4 -32 2 20 2 52 0 70 -2 17 -4 1 -4 -38z"/> <path d="M541 1746 c15 -15 79 -54 79 -48 0 8 -65 52 -77 52 -3 0 -4 -2 -2 -4z"/> <path d="M900 1677 c-5 -56 -4 -58 18 -54 12 2 22 0 22 -4 0 -5 -9 -9 -21 -9 -14 0 -19 -5 -16 -14 4 -9 -5 -16 -26 -20 -53 -11 -109 -27 -105 -31 2 -2 30 3 63 11 33 7 63 14 67 14 4 0 9 -17 11 -37 l4 -38 1 38 c1 25 7 37 16 37 8 0 18 5 22 12 5 8 0 9 -14 6 -12 -4 -22 -2 -22 3 0 5 7 9 15 9 9 0 15 9 15 25 0 22 -3 24 -19 15 -18 -9 -20 -6 -23 42 l-3 53 -5 -58z"/> <path d="M525 1710 c3 -5 11 -10 17 -10 5 0 30 -14 55 -30 25 -17 47 -29 50 -27 2 3 -21 21 -51 41 -53 35 -84 46 -71 26z"/> <path d="M210 1680 c0 -20 -5 -41 -11 -47 -18 -18 -7 -32 19 -22 26 10 30 54 7 85 -13 18 -14 17 -15 -16z"/> <path d="M1470 1670 c33 -11 80 -12 80 -2 0 5 -24 9 -52 10 -41 0 -47 -1 -28 -8z"/> <path d="M1025 1658 c-62 -16 -68 -18 -63 -23 8 -9 108 16 108 26 0 5 -1 8 -2 8 -2 -1 -21 -6 -43 -11z"/> <path d="M1080 1655 c0 -8 -4 -15 -10 -15 -6 0 -10 -37 -10 -92 0 -50 3 -88 7 -85 3 4 6 43 4 87 -1 65 1 80 13 80 9 0 13 6 10 14 -4 9 3 16 18 19 21 4 20 4 -4 6 -19 1 -28 -4 -28 -14z"/> <path d="M1323 1653 c15 -2 39 -2 55 0 15 2 2 4 -28 4 -30 0 -43 -2 -27 -4z"/> <path d="M2312 1625 c-16 -34 -15 -40 2 -26 16 13 28 51 17 51 -4 0 -13 -11 -19 -25z"/> <path d="M585 1588 c-24 -72 -22 -70 -58 -48 -18 11 -39 20 -47 20 -8 0 3 -10 25 -21 66 -35 75 -43 64 -59 -7 -13 -9 -13 -9 1 0 8 -21 25 -47 37 -27 12 -39 16 -29 7 11 -8 24 -15 30 -15 5 0 7 -2 4 -5 -3 -3 -18 -1 -33 5 -25 9 -26 9 -15 -5 7 -8 18 -15 24 -15 7 0 20 -6 30 -13 15 -11 16 -17 5 -40 -7 -15 -16 -27 -21 -27 -5 0 -6 -4 -3 -10 5 -9 -2 -12 -25 -12 -3 -1 -17 2 -32 6 -16 4 -28 2 -28 -4 0 -5 11 -12 25 -16 14 -3 25 -10 25 -15 0 -5 7 -6 15 -3 8 4 13 10 10 14 -3 5 4 11 15 15 11 3 20 14 20 24 0 9 7 26 16 37 15 18 15 18 9 -6 -17 -65 -18 -73 -6 -66 6 4 11 16 11 26 0 47 9 51 58 25 26 -14 51 -25 57 -25 5 1 -8 10 -30 22 -22 12 -34 23 -27 25 6 3 10 9 6 14 -7 12 3 11 28 -2 11 -6 22 -8 25 -6 3 3 -9 13 -26 21 -35 18 -45 20 -36 6 3 -5 1 -10 -5 -10 -6 0 -8 -4 -5 -10 3 -5 -1 -10 -10 -10 -12 0 -15 5 -10 18 16 41 45 138 44 152 0 8 -9 -13 -21 -47 -11 -35 -25 -63 -29 -63 -12 0 -12 -3 11 64 12 32 19 60 17 63 -3 2 -13 -20 -22 -49z"/> <path d="M1185 1634 c-5 -1 -31 -5 -57 -9 -27 -3 -48 -11 -48 -17 0 -6 8 -7 17 -3 10 3 36 9 58 12 22 3 42 7 44 9 7 6 -3 12 -14 8z"/> <path d="M1465 1620 c28 -12 45 -12 45 0 0 6 -15 10 -32 9 -28 0 -30 -2 -13 -9z"/> <path d="M75 1603 c-59 -31 -75 -53 -75 -102 l1 -46 64 68 c83 86 87 121 10 80z"/> <path d="M810 1610 c-12 -8 -11 -10 5 -9 11 1 31 5 45 9 24 8 24 8 -5 9 -16 0 -37 -4 -45 -9z"/> <path d="M1000 1600 l-25 -8 25 -1 c14 0 32 4 40 9 13 9 13 10 0 9 -8 -1 -26 -5 -40 -9z"/> <path d="M800 1580 c-13 -9 -13 -10 0 -9 8 0 24 4 35 9 20 9 20 9 0 9 -11 0 -27 -4 -35 -9z"/> <path d="M1263 1535 c0 -27 2 -38 4 -22 2 15 2 37 0 50 -2 12 -4 0 -4 -28z"/> <path d="M2416 1565 c-10 -8 -15 -18 -11 -24 4 -7 -4 -11 -21 -11 -35 0 -28 -7 11 -11 20 -3 29 0 28 9 -2 6 2 12 8 12 5 0 8 4 5 9 -4 5 -1 11 6 13 7 3 8 7 2 10 -5 4 -17 0 -28 -7z"/> <path d="M937 1510 c-4 -18 -5 -35 -2 -38 3 -3 5 3 6 14 0 18 1 18 9 -1 9 -20 9 -20 9 0 0 11 -4 29 -8 40 -7 16 -9 14 -14 -15z"/> <path d="M1465 1510 c-9 -15 4 -30 26 -30 12 0 19 7 19 20 0 21 -33 29 -45 10z"/> <path d="M2390 1493 c0 -10 -11 -35 -24 -57 -14 -21 -22 -44 -20 -51 3 -8 -8 -15 -31 -19 -19 -4 -33 -11 -30 -16 3 -5 -7 -11 -22 -13 -18 -3 -11 -5 18 -6 27 0 49 -6 52 -13 6 -17 1 -68 -8 -90 -4 -10 -3 -18 3 -18 13 0 25 72 17 102 -6 23 -6 23 10 3 10 -12 14 -29 10 -44 -13 -51 -18 -86 -11 -79 4 3 9 12 10 20 2 7 6 26 11 41 4 17 3 38 -3 52 -11 23 -10 24 36 28 l47 3 -47 2 c-59 2 -63 20 -5 24 l42 3 -43 10 -44 10 26 38 c26 38 35 87 16 87 -5 0 -10 -8 -10 -17z"/> <path d="M440 1458 c1 -16 50 -53 50 -38 0 5 -4 10 -9 10 -5 0 -13 9 -16 20 -7 22 -25 27 -25 8z"/> <path d="M1990 1425 c-10 -12 -10 -15 4 -15 9 0 16 7 16 15 0 8 -2 15 -4 15 -2 0 -9 -7 -16 -15z"/> <path d="M1333 1423 c15 -2 37 -2 50 0 12 2 0 4 -28 4 -27 0 -38 -2 -22 -4z"/> <path d="M1440 1426 c0 -2 18 -6 40 -8 22 -2 40 0 40 4 0 5 -18 8 -40 8 -22 0 -40 -2 -40 -4z"/> <path d="M2211 1421 c-8 -5 -21 -7 -30 -4 -13 4 -13 3 -2 -5 14 -10 48 -5 57 9 7 12 -7 11 -25 0z"/> <path d="M840 1396 c-14 -8 -28 -12 -31 -10 -4 2 -10 -14 -14 -36 -5 -27 -12 -40 -23 -41 -11 0 -12 -3 -5 -6 7 -2 24 4 38 15 17 14 21 22 13 25 -10 3 -10 7 -1 17 15 16 103 16 113 0 4 -7 22 -13 39 -14 18 -1 36 -7 40 -15 5 -7 11 -12 15 -12 21 3 25 -4 29 -46 3 -41 4 -40 3 10 -1 31 -4 56 -7 55 -3 -2 -22 10 -43 25 -22 17 -47 28 -64 27 -47 -3 -63 0 -57 10 9 14 -16 12 -45 -4z"/> <path d="M1025 1400 c-4 -6 1 -7 10 -3 10 3 21 0 26 -8 7 -11 9 -11 9 4 0 18 -34 24 -45 7z"/> <path d="M595 1371 c3 -6 -3 -14 -12 -20 -15 -8 -11 -10 21 -11 l40 0 -22 20 c-22 21 -37 27 -27 11z"/> <path d="M1220 1340 c0 -5 5 -10 11 -10 7 0 9 -10 5 -25 -4 -14 -2 -25 4 -25 5 0 10 11 10 25 0 14 6 25 13 25 8 0 7 4 -3 10 -20 13 -40 13 -40 0z"/> <path d="M1920 1320 c-4 -49 0 -201 7 -223 5 -18 -10 -19 -444 -13 -256 3 -437 2 -422 -3 36 -12 861 -22 873 -11 3 3 1 68 -3 145 -4 77 -9 124 -11 105z"/> <path d="M470 1328 c-38 -10 -90 -54 -90 -75 0 -18 16 -16 32 3 54 67 79 78 86 38 2 -10 9 -23 14 -29 11 -11 8 12 -8 49 -5 14 -4 17 4 12 7 -4 12 -2 12 3 0 13 -3 13 -50 -1z"/> <path d="M535 1315 c5 -23 4 -26 -4 -15 -7 9 -11 10 -11 3 0 -17 14 -23 29 -13 11 6 11 12 -3 31 l-17 24 6 -30z"/> <path d="M1280 1310 c0 -16 5 -30 11 -30 6 0 9 7 5 15 -3 8 -1 15 4 15 6 0 10 -7 10 -15 0 -8 5 -15 10 -15 6 0 10 14 10 30 0 30 -14 41 -23 18 -4 -10 -6 -10 -6 0 -2 26 -21 10 -21 -18z"/> <path d="M1340 1310 c0 -25 4 -30 25 -30 14 0 25 4 25 10 0 5 -7 7 -15 4 -8 -4 -15 -1 -15 5 0 6 6 11 13 11 8 0 8 3 -2 9 -11 7 -10 10 5 14 13 3 11 5 -8 6 -25 1 -28 -3 -28 -29z"/> <path d="M1428 1333 c6 -2 12 -16 12 -29 0 -13 5 -24 10 -24 6 0 10 11 10 24 0 13 6 27 13 29 6 3 -4 5 -23 5 -19 0 -29 -2 -22 -5z"/> <path d="M1488 1322 c-7 -26 17 -56 35 -45 8 5 6 9 -5 11 -16 3 -16 5 -3 18 17 18 20 34 4 34 -5 0 -8 -4 -4 -9 3 -5 1 -12 -4 -15 -5 -4 -11 2 -13 11 -3 15 -5 14 -10 -5z"/> <path d="M1552 1328 c-16 -16 -15 -33 3 -48 13 -10 18 -11 28 -1 9 10 9 12 -3 9 -9 -2 -16 6 -18 21 -3 19 0 22 13 18 9 -4 14 -3 10 3 -8 13 -18 13 -33 -2z"/> <path d="M1609 1325 c-3 -11 -2 -29 2 -40 6 -17 8 -17 8 -2 1 9 6 17 12 17 6 0 9 -7 5 -15 -3 -8 -1 -15 4 -15 6 0 10 15 9 33 0 17 -3 26 -6 20 -7 -19 -21 -16 -25 5 -3 15 -5 14 -9 -3z"/> <path d="M892 1293 c3 -15 37 -31 101 -47 24 -6 27 -4 27 19 0 22 -4 25 -39 25 -22 0 -43 5 -46 10 -11 17 -47 12 -43 -7z"/> <path d="M594 1271 c-23 -10 -51 -32 -62 -49 -23 -32 -45 -149 -30 -158 9 -6 11 -55 2 -78 -3 -9 -12 -16 -19 -16 -7 0 -15 -7 -19 -15 -7 -20 13 -19 35 1 15 14 21 14 53 0 37 -15 46 -10 24 13 -11 11 -9 13 9 8 19 -4 21 -2 13 13 -8 16 -5 18 33 16 30 -2 48 3 62 16 20 20 20 20 -15 15 -19 -2 -43 -7 -54 -12 -30 -13 -70 7 -89 46 -32 65 6 156 71 175 15 4 29 8 32 10 3 1 15 5 27 9 13 4 20 11 17 16 -8 14 -46 10 -90 -10z"/> <path d="M2285 1270 c-3 -5 1 -10 9 -10 8 0 18 5 21 10 3 6 -1 10 -9 10 -8 0 -18 -4 -21 -10z"/> <path d="M2437 1217 c24 -28 28 -30 31 -14 4 19 -23 46 -46 47 -9 0 -3 -13 15 -33z"/> <path d="M1210 1218 c0 -5 5 -8 11 -8 7 0 9 -10 7 -25 -3 -16 -1 -25 7 -25 8 0 10 9 7 25 -3 18 0 25 12 25 10 0 16 -9 16 -25 0 -14 5 -25 10 -25 6 0 10 13 10 29 0 26 -3 29 -40 33 -22 2 -40 0 -40 -4z"/> <path d="M1057 1200 c-5 -19 -36 -28 -50 -14 -3 3 -36 7 -74 8 -37 1 -78 6 -91 10 -18 7 -21 5 -16 -7 7 -21 110 -45 125 -30 12 12 82 0 87 -15 2 -6 12 -5 26 1 16 8 21 17 18 34 -6 31 -18 38 -25 13z"/> <path d="M1300 1190 c0 -16 5 -30 10 -30 6 0 10 14 10 30 0 17 -4 30 -10 30 -5 0 -10 -13 -10 -30z"/> <path d="M1338 1195 c-6 -30 -3 -43 8 -33 3 4 4 19 2 35 l-3 28 -7 -30z"/> <path d="M1371 1210 c0 -16 22 -50 33 -50 3 0 5 15 5 33 -1 18 -3 24 -6 14 -5 -18 -5 -18 -19 0 -10 14 -13 15 -13 3z"/> <path d="M1428 1192 c-2 -18 -1 -35 4 -38 4 -3 8 3 8 13 1 17 1 17 14 0 13 -16 14 -15 13 18 -1 28 -3 32 -11 18 -9 -16 -10 -16 -16 2 -6 16 -8 14 -12 -13z"/> <path d="M1497 1214 c-4 -4 -7 -20 -7 -36 0 -23 4 -28 25 -28 14 0 25 4 25 10 0 5 -7 7 -15 4 -8 -4 -15 -1 -15 5 0 6 6 11 13 11 8 0 9 3 1 8 -6 4 -13 13 -15 20 -3 7 -8 10 -12 6z"/> <path d="M1550 1180 c0 -16 5 -30 10 -30 6 0 10 14 10 30 0 17 -4 30 -10 30 -5 0 -10 -13 -10 -30z"/> <path d="M1582 1181 c-1 -16 1 -32 6 -35 4 -2 9 11 9 30 1 41 -12 46 -15 5z"/> <path d="M1615 1201 c-3 -5 5 -17 17 -26 l23 -17 -22 5 c-13 3 -23 1 -23 -4 0 -5 11 -9 25 -9 29 0 34 23 8 40 -17 11 -17 11 0 6 9 -3 17 -1 17 4 0 13 -37 13 -45 1z"/> <path d="M425 1176 c8 -13 13 -30 10 -39 -4 -8 -2 -18 3 -21 20 -12 21 27 1 55 -24 35 -36 39 -14 5z"/> <path d="M1005 1135 c-13 -19 -175 -34 -175 -16 0 6 -12 11 -27 11 l-28 -1 28 -15 c15 -8 27 -21 27 -29 0 -24 42 -30 59 -9 12 14 31 20 70 21 62 3 64 4 59 32 -2 18 -5 19 -13 6z"/> <path d="M2431 1095 c-2 -5 -5 -23 -7 -40 -3 -25 -2 -27 7 -12 5 10 8 28 6 40 -2 12 -5 18 -6 12z"/> <path d="M920 1060 c-13 -9 -13 -10 0 -11 8 -1 23 0 34 1 11 1 17 -3 14 -11 -4 -12 -21 -15 -103 -21 -11 -1 -30 1 -42 6 -19 6 -23 4 -23 -13 0 -13 5 -19 14 -15 8 3 16 -2 19 -13 3 -13 5 -13 6 -3 1 20 91 22 91 2 0 -7 -5 -10 -11 -7 -11 8 -11 -87 1 -120 5 -15 8 -8 11 23 3 24 1 46 -3 48 -4 3 -8 13 -7 22 0 14 2 13 9 -3 7 -16 9 -17 9 -3 1 20 15 25 102 33 l67 7 7 -72 c9 -90 0 -102 -13 -18 l-11 63 2 -65 2 -64 -114 -13 c-63 -7 -117 -16 -120 -19 -3 -4 11 -5 32 -2 36 4 50 -5 25 -15 -8 -4 -7 -6 4 -6 9 -1 19 7 21 17 4 13 5 11 6 -5 1 -17 -5 -23 -19 -23 -17 0 -20 -6 -19 -37 2 -37 2 -37 8 -8 10 51 31 41 31 -14 0 -27 3 -63 6 -80 10 -48 -18 -36 -33 14 l-13 40 5 -42 c5 -41 4 -43 -20 -43 -14 0 -25 -4 -25 -9 0 -4 11 -6 25 -3 14 2 25 0 25 -7 0 -6 -10 -13 -22 -15 -59 -12 -170 -24 -190 -20 -13 2 -9 -1 9 -7 18 -7 34 -19 36 -28 4 -14 5 -14 6 1 1 18 61 34 161 42 103 8 170 19 165 26 -3 5 -13 7 -23 5 -66 -13 -92 -13 -92 1 0 10 14 15 48 16 51 2 87 4 169 9 30 2 54 0 55 -6 2 -6 -28 -11 -69 -13 -40 -2 -73 -7 -73 -12 0 -6 4 -10 10 -10 5 0 11 -30 13 -67 l3 -68 2 73 2 72 60 0 60 0 0 -31 c0 -27 2 -30 15 -19 8 7 14 27 14 44 l-1 31 -8 -30 -8 -30 -1 36 c-1 24 3 36 13 36 14 0 27 -83 25 -156 l-2 -36 -7 35 -7 35 -2 -42 c-1 -36 2 -43 18 -43 16 0 18 6 15 37 -2 21 -5 68 -8 106 l-3 67 63 0 c36 0 64 -4 64 -10 0 -5 -12 -10 -26 -10 -14 0 -23 -4 -19 -10 3 -5 15 -10 27 -10 13 0 18 -5 15 -14 -3 -7 -8 -35 -12 -62 -3 -27 -8 -59 -11 -71 -3 -17 1 -23 13 -25 10 -1 -7 -4 -37 -8 l-55 -7 58 -1 57 -2 0 105 0 104 76 -3 c41 -2 77 -6 78 -8 2 -1 1 -36 -2 -76 -4 -66 -6 -72 -23 -67 -11 4 -19 2 -19 -4 0 -6 6 -11 14 -11 8 0 20 -2 28 -5 10 -4 13 12 13 75 1 43 3 81 5 83 3 3 33 0 67 -6 l63 -11 -5 -75 c-2 -42 -8 -75 -12 -75 -56 10 -105 12 -88 5 11 -5 34 -10 50 -10 17 -1 37 -6 45 -12 11 -7 0 -9 -40 -5 l-55 5 53 -12 c70 -16 58 -27 -16 -14 -65 11 -72 14 -52 27 11 7 7 10 -15 10 -23 0 -27 -3 -15 -10 10 -6 11 -10 3 -10 -7 0 -13 -5 -13 -11 0 -5 5 -7 10 -4 6 4 9 -12 9 -42 l-2 -48 -7 40 -7 40 -2 -38 c0 -21 -5 -36 -10 -33 -4 3 -6 17 -3 31 2 14 0 25 -4 25 -5 0 -10 -21 -11 -48 -1 -26 0 -41 3 -34 7 15 34 16 34 1 0 -5 5 -7 10 -4 6 3 10 29 10 57 l0 50 48 -6 c87 -13 84 -9 77 -89 -4 -40 -8 -73 -10 -75 -7 -8 -120 19 -127 31 -5 8 -8 4 -8 -10 0 -14 -6 -23 -15 -23 -8 0 -15 5 -15 11 0 5 5 7 10 4 6 -3 10 1 10 10 0 9 -4 13 -10 10 -5 -3 -10 0 -10 7 0 9 -2 10 -8 2 -4 -7 -27 -12 -51 -12 -24 -1 -46 -3 -49 -6 -3 -3 18 -6 47 -6 48 0 51 -1 47 -23 -3 -12 -7 -60 -10 -107 -3 -64 -2 -74 4 -40 5 25 9 64 9 88 1 39 3 42 27 42 15 0 43 -4 63 -10 20 -5 48 -12 63 -15 27 -5 27 -5 21 -75 -4 -46 -2 -70 5 -70 5 0 10 12 9 28 -2 57 3 112 11 112 4 0 7 -33 6 -72 l-3 -73 10 84 c5 47 10 86 12 87 7 6 127 -20 127 -28 0 -5 -27 -7 -62 -3 -43 3 -57 2 -43 -4 11 -5 34 -10 52 -10 17 -1 34 -5 37 -10 3 -5 15 -7 25 -4 13 3 21 -1 24 -14 4 -16 5 -16 6 0 0 9 9 17 19 18 10 0 12 3 5 6 -7 2 -13 9 -13 14 0 9 38 7 125 -7 22 -4 26 -3 15 5 -8 5 -43 13 -78 17 l-64 7 6 30 c3 16 6 50 6 74 l0 45 63 -5 62 -5 -62 10 c-52 9 -61 14 -60 30 1 17 7 19 40 15 21 -3 45 -14 53 -24 14 -17 15 -17 12 2 -2 16 -15 22 -56 29 l-52 10 -2 70 -2 71 -6 -70 c-4 -38 -7 -56 -8 -39 -1 17 -5 53 -9 79 -5 42 -4 48 10 42 23 -9 22 9 0 18 -17 7 -16 8 2 15 17 7 18 9 4 14 -11 5 -14 16 -11 38 3 20 1 29 -6 24 -7 -4 -9 6 -6 31 4 29 3 34 -5 23 -9 -12 -11 -11 -11 8 0 14 6 22 18 22 15 1 15 2 -2 15 -14 11 -16 15 -5 15 12 0 12 2 -1 10 -8 5 -17 10 -20 10 -6 0 -4 -90 3 -110 3 -8 8 -30 11 -49 6 -33 6 -33 -26 -27 -18 4 -50 9 -72 13 l-38 6 6 45 c3 25 6 58 6 74 0 29 0 29 53 24 37 -4 45 -3 27 3 -14 5 -37 9 -52 10 -21 1 -28 6 -28 22 0 18 4 20 48 15 33 -4 41 -3 27 3 -11 5 -32 10 -46 10 -23 1 -27 7 -33 39 -3 20 -6 57 -6 81 0 33 3 42 14 38 8 -3 31 -9 50 -13 20 -3 36 -10 36 -14 0 -5 9 -8 20 -7 41 3 11 22 -56 35 -38 7 -75 14 -81 14 -7 1 -13 7 -13 13 0 11 15 9 160 -24 81 -19 130 -36 130 -44 0 -5 -10 -6 -22 -3 -13 4 -39 9 -58 11 -28 3 -24 1 18 -13 43 -14 52 -21 52 -40 0 -13 -4 -31 -9 -40 -13 -27 -21 -92 -10 -92 5 0 9 11 9 25 0 13 7 50 15 82 22 86 22 87 -37 103 -87 21 -98 29 -98 66 0 28 -3 32 -25 30 -26 -1 -36 -16 -10 -16 9 0 15 -10 15 -26 0 -20 -4 -25 -16 -20 -9 3 -33 9 -55 12 -33 6 -39 10 -40 33 l-1 26 -7 -25 -8 -25 -5 25 c-5 24 -5 24 -7 2 -1 -17 -6 -22 -18 -20 -11 2 -17 11 -15 21 2 9 -2 17 -8 17 -5 0 -10 -7 -10 -15 0 -11 -8 -13 -32 -8 -18 3 -37 9 -43 13 -5 3 -84 5 -174 4 -91 -2 -172 1 -182 7 -10 5 -19 5 -21 0 -2 -5 -29 -10 -60 -13 -46 -4 -58 -2 -61 11 -4 13 -5 13 -6 -1 0 -10 -5 -18 -10 -18 -5 0 -12 8 -14 18 -4 13 -5 13 -6 -4 0 -12 -7 -22 -13 -21 -40 1 -68 -4 -68 -13 0 -6 10 -8 23 -5 12 2 45 7 72 10 28 3 69 8 91 11 26 4 44 2 48 -5 10 -15 -5 -19 -114 -26 -52 -3 -114 -10 -137 -14 -33 -6 -43 -5 -43 5 0 7 9 15 19 19 11 3 25 12 31 20 26 31 -32 60 -70 35z m361 -79 c1 -40 2 -42 8 -16 6 26 10 30 39 27 18 -1 32 2 32 8 0 5 -16 10 -35 10 -19 0 -35 4 -35 9 0 4 61 9 134 9 l135 1 0 -90 -1 -89 -36 0 c-21 -1 -81 -3 -136 -7 l-98 -5 7 30 c3 18 2 33 -4 37 -7 4 -12 -8 -13 -32 l-1 -38 -5 35 -5 35 -7 -35 -7 -35 -2 42 c0 23 4 45 9 48 6 3 9 18 9 33 l-1 27 -8 -30 -8 -30 -1 32 c0 17 5 34 12 37 10 5 10 7 0 12 -18 8 -16 21 2 21 11 0 15 -13 16 -46z m309 -56 l4 70 6 -70 6 -70 2 68 c1 37 5 67 10 66 4 0 34 -6 67 -13 l60 -13 1 -77 c2 -75 1 -77 -20 -72 -11 3 -41 7 -66 10 -34 4 -28 1 23 -11 54 -13 67 -20 67 -36 0 -13 -5 -17 -15 -14 -8 4 -40 11 -73 18 -55 12 -58 13 -54 40 3 22 0 27 -15 26 -16 -2 -18 7 -19 93 l-1 95 7 -90 6 -90 4 70z m118 78 c17 -3 32 -10 32 -15 0 -8 -24 -6 -102 8 -16 3 -28 10 -28 16 0 7 12 8 33 4 17 -4 47 -10 65 -13z m-469 -102 l-1 -90 -47 -4 c-25 -2 -10 -4 34 -4 44 0 68 2 53 4 -61 9 -22 18 95 21 67 2 133 4 147 4 76 2 78 1 73 -39 -2 -24 -1 -33 5 -25 7 10 22 10 76 -2 37 -7 69 -16 72 -18 2 -3 1 -38 -2 -77 -7 -70 -8 -72 -31 -67 -12 4 -44 9 -69 13 l-46 6 5 65 c3 39 1 59 -4 51 -5 -8 -9 -39 -9 -70 l0 -55 71 -11 c39 -6 73 -14 77 -17 14 -14 -10 -17 -60 -7 -54 11 -97 19 -110 20 -5 1 -8 6 -8 12 0 5 5 7 10 4 6 -3 10 1 10 10 0 9 -4 13 -10 10 -6 -3 -10 4 -10 17 0 19 2 20 10 8 7 -10 8 4 5 45 -6 63 -14 84 -17 44 -1 -13 -2 -31 -4 -39 -1 -8 -2 -29 -3 -46 -1 -31 -1 -31 -55 -32 l-55 0 -4 41 -4 42 -1 -47 -2 -48 -65 0 -65 0 -2 73 c-1 55 -3 61 -6 27 -3 -35 -6 -41 -12 -25 -8 19 -9 19 -9 -3 -1 -14 -5 -21 -12 -16 -6 3 -9 18 -6 33 3 15 1 33 -4 41 -7 11 -9 -7 -7 -57 l4 -73 -36 0 c-19 0 -45 -3 -57 -6 -22 -6 -23 -4 -25 67 l-2 74 -6 -75 -6 -75 -2 81 c-2 58 1 81 11 82 6 1 78 2 160 3 91 0 150 5 154 11 4 8 -45 9 -160 6 -166 -6 -167 -6 -166 16 0 20 1 20 9 1 7 -17 9 -17 9 -2 1 13 10 17 46 17 25 0 45 4 45 10 0 6 -18 7 -44 4 l-44 -6 -4 73 c-3 41 -3 77 -2 80 2 3 28 7 59 8 l56 2 -2 -90z m533 -43 c2 -54 1 -98 -4 -98 -4 0 -8 46 -8 102 0 56 2 99 4 97 2 -2 6 -48 8 -101z m-697 -58 l-30 -8 30 -1 c50 -2 14 -18 -52 -24 -56 -5 -63 -3 -63 13 0 20 26 26 105 27 38 1 38 0 10 -7z m25 -109 l0 -78 -61 -7 c-34 -4 -63 -5 -65 -3 -2 2 -7 35 -10 74 l-6 70 68 10 c38 5 70 11 72 11 1 1 2 -33 2 -77z m671 -31 c-3 -41 -9 -70 -13 -64 -4 5 -5 19 -3 30 2 10 4 44 4 74 1 29 5 50 9 45 5 -6 6 -44 3 -85z m-481 -15 c0 -16 -6 -25 -15 -25 -9 0 -15 9 -15 23 0 18 2 19 10 7 8 -13 10 -12 10 3 0 9 2 17 5 17 3 0 5 -11 5 -25z m260 -35 c0 -5 -25 -10 -55 -10 -30 0 -55 5 -55 10 0 6 25 10 55 10 30 0 55 -4 55 -10z m323 -46 l44 -6 -5 -92 c-2 -50 -5 -92 -6 -92 -3 -4 -125 22 -130 27 -4 3 -3 38 0 76 l7 71 34 -10 c19 -5 46 -8 61 -6 24 4 22 5 -13 12 -79 14 -85 17 -85 27 0 7 10 9 25 5 14 -4 45 -9 68 -12z m-110 -86 c-8 -97 -13 -99 -13 -5 0 43 4 77 9 77 6 0 7 -30 4 -72z m164 -85 c-2 -16 -4 -5 -4 22 0 28 2 40 4 28 2 -13 2 -35 0 -50z m-142 -63 c13 0 46 -5 74 -12 50 -11 51 -12 51 -47 0 -20 -3 -53 -7 -74 -6 -42 -2 -41 -101 -22 -9 2 -21 4 -26 4 -5 1 -6 32 -4 71 3 38 1 67 -3 64 -5 -3 -9 -34 -9 -70 0 -35 -4 -64 -9 -64 -4 0 -7 42 -5 93 5 117 6 129 11 90 4 -27 9 -33 28 -33z m64 40 c19 -5 49 -11 68 -12 18 -1 33 -6 33 -11 0 -5 -9 -7 -20 -4 -13 3 -20 0 -20 -10 0 -9 -6 -12 -17 -9 -10 3 -39 8 -66 12 -43 6 -76 24 -45 24 9 0 9 3 -2 10 -21 13 23 13 69 0z m93 -100 c3 19 4 1 1 -40 -2 -41 -5 -75 -6 -77 -2 -1 -8 1 -14 5 -7 5 -9 32 -5 82 6 66 7 70 12 35 l6 -40 6 35z m-212 -107 c0 -14 -7 -13 -92 8 -62 16 -43 25 27 15 42 -7 65 -15 65 -23z"/> <path d="M1528 1015 c-3 -3 -39 -6 -81 -7 -43 0 -77 -5 -77 -10 0 -8 169 -1 178 7 2 2 -1 6 -6 9 -5 3 -11 3 -14 1z"/> <path d="M1402 922 c-31 -26 -40 -42 -24 -42 4 0 20 16 35 35 33 42 32 43 -11 7z"/> <path d="M1640 905 c-6 -8 -10 -20 -7 -27 4 -9 6 -8 6 3 1 9 11 21 24 27 16 8 17 11 6 11 -9 1 -22 -6 -29 -14z"/> <path d="M1395 810 c-47 -6 -48 -7 -10 -7 22 -1 67 3 100 7 l60 7 -50 0 c-27 0 -72 -3 -100 -7z"/> <path d="M1450 793 c0 -5 29 -8 65 -8 36 0 65 3 65 7 0 5 -29 8 -65 8 -36 0 -65 -3 -65 -7z"/> <path d="M1473 754 c-3 -8 -1 -20 6 -27 14 -14 47 15 37 32 -10 16 -36 13 -43 -5z"/> <path d="M988 783 c12 -2 30 -2 40 0 9 3 -1 5 -23 4 -22 0 -30 -2 -17 -4z"/> <path d="M1910 1021 c0 -17 2 -31 4 -31 8 0 13 51 5 56 -5 3 -9 -9 -9 -25z"/> <path d="M790 974 c-24 -14 -24 -15 -2 -11 30 7 28 -7 -4 -22 -15 -6 -25 -14 -22 -16 7 -7 78 18 78 27 0 5 -4 7 -9 3 -5 -3 -11 3 -13 14 -3 18 -5 18 -28 5z"/> <path d="M2160 965 c0 -8 7 -15 16 -15 14 0 14 3 4 15 -7 8 -14 15 -16 15 -2 0 -4 -7 -4 -15z"/> <path d="M953 900 c0 -30 2 -43 4 -27 2 15 2 39 0 55 -2 15 -4 2 -4 -28z"/> <path d="M2262 920 c-12 -5 -28 -7 -35 -4 -7 2 -24 0 -38 -5 -23 -9 -19 -12 19 -14 29 -1 82 14 82 24 0 5 -1 9 -2 8 -2 0 -13 -4 -26 -9z"/> <path d="M2344 915 c-10 -8 -14 -15 -7 -15 19 0 43 11 43 21 0 13 -14 11 -36 -6z"/> <path d="M1884 879 c3 -17 6 -49 6 -70 0 -40 3 -43 70 -53 l35 -5 -37 11 c-41 12 -48 29 -45 106 2 35 -1 42 -17 42 -15 0 -17 -5 -12 -31z"/> <path d="M2046 839 c-10 -33 -16 -62 -14 -65 3 -2 13 23 22 57 23 79 15 87 -8 8z"/> <path d="M833 855 c0 -22 2 -30 4 -17 2 12 2 30 0 40 -3 9 -5 -1 -4 -23z"/> <path d="M0 840 c0 -10 22 -12 213 -15 65 -1 115 1 110 5 -13 12 -323 21 -323 10z"/> <path d="M433 787 c-11 -23 -59 -116 -106 -207 -48 -91 -94 -181 -103 -200 -40 -84 -68 -145 -69 -150 0 -3 -10 -21 -23 -41 -12 -20 -22 -42 -22 -49 0 -8 -6 -21 -13 -29 -10 -11 -11 -24 -6 -41 8 -24 9 -24 5 3 -2 17 1 26 8 24 14 -5 37 49 29 69 -3 9 -1 14 7 12 7 -2 36 45 67 107 31 61 61 113 67 117 6 4 8 8 4 8 -4 0 17 46 46 103 61 119 141 305 134 312 -2 3 -14 -14 -25 -38z"/> <path d="M826 791 c-3 -5 -18 -11 -33 -14 -65 -12 -107 -27 -75 -27 6 0 9 -7 5 -17 -5 -12 -3 -14 8 -9 8 4 5 0 -5 -8 -18 -14 -15 -21 7 -17 4 0 7 -5 7 -11 0 -9 4 -8 11 2 9 13 10 13 6 0 -2 -8 -10 -14 -16 -12 -15 3 -14 -9 5 -54 11 -25 19 -34 22 -24 2 8 10 22 16 30 10 13 9 13 -6 1 -21 -15 -23 -9 -7 21 9 16 8 19 -2 13 -9 -6 -11 -3 -6 9 4 10 7 24 7 31 0 8 8 16 18 18 9 2 5 3 -10 1 -34 -4 -36 3 -5 17 19 8 18 9 -8 4 -20 -4 -27 -3 -20 3 14 14 85 32 85 22 0 -5 -8 -11 -17 -13 -17 -4 -17 -5 0 -6 10 0 16 -5 12 -10 -3 -5 -1 -12 5 -16 5 -3 10 3 10 14 0 11 8 22 18 24 16 4 16 5 -1 6 -10 0 -16 5 -12 10 3 5 1 12 -4 15 -5 4 -12 2 -15 -3z"/> <path d="M2031 732 c-1 -19 -5 -31 -11 -27 -6 4 -10 -7 -9 -27 1 -28 2 -29 7 -10 4 13 12 23 17 24 6 0 9 4 8 9 -2 5 3 9 10 9 8 0 9 2 1 8 -7 4 -14 16 -17 27 -3 13 -5 9 -6 -13z"/> <path d="M932 700 c0 -19 2 -27 5 -17 2 9 2 25 0 35 -3 9 -5 1 -5 -18z"/> <path d="M823 650 c0 -30 2 -43 4 -27 2 15 2 39 0 55 -2 15 -4 2 -4 -28z"/> <path d="M86 654 c-11 -28 -6 -39 9 -20 8 11 15 23 15 28 0 14 -18 9 -24 -8z"/> <path d="M2023 634 c-18 -46 -26 -81 -15 -65 8 11 11 10 15 -5 5 -18 6 -18 5 1 -1 11 2 32 6 47 11 39 2 57 -11 22z"/> <path d="M0 640 c0 -5 13 -10 30 -10 17 0 30 5 30 10 0 6 -13 10 -30 10 -17 0 -30 -4 -30 -10z"/> <path d="M1320 580 c0 -13 11 -13 30 0 12 8 11 10 -7 10 -13 0 -23 -4 -23 -10z"/> <path d="M2140 568 c-2 -128 -13 -333 -21 -372 -8 -42 -6 -58 12 -105 12 -31 25 -65 28 -75 4 -11 10 -15 13 -10 4 5 -3 34 -14 64 -11 30 -20 69 -20 85 0 17 4 121 7 233 3 111 4 202 1 202 -3 0 -6 -10 -6 -22z"/> <path d="M810 570 c0 -12 8 -12 35 0 18 8 17 9 -7 9 -16 1 -28 -3 -28 -9z"/> <path d="M740 560 c-24 -8 -24 -8 5 -9 17 0 37 4 45 9 12 8 11 10 -5 9 -11 -1 -31 -5 -45 -9z"/> <path d="M1557 556 c-13 -33 -8 -94 8 -100 12 -4 15 3 14 37 0 23 -4 51 -8 61 -7 18 -8 18 -14 2z"/> <path d="M1990 539 c14 -6 38 -13 54 -16 16 -2 40 -9 53 -14 12 -4 23 -5 23 0 0 7 -42 19 -130 37 l-25 5 25 -12z"/> <path d="M110 445 c0 -95 15 -139 22 -65 2 22 0 40 -3 40 -4 0 -5 8 -3 18 11 55 11 91 -2 96 -11 4 -14 -13 -14 -89z"/> <path d="M963 519 c-7 -7 -12 -27 -12 -43 l2 -31 7 35 c7 31 8 29 9 -22 l1 -56 -37 -6 c-21 -3 -63 -8 -93 -12 -30 -4 -49 -9 -41 -12 11 -4 11 -6 0 -13 -10 -6 -11 -9 -1 -9 6 0 12 -5 12 -11 0 -5 -4 -7 -10 -4 -5 3 -10 5 -10 3 7 -46 39 -144 49 -146 8 -1 10 2 5 10 -5 7 -7 24 -5 37 2 15 -1 21 -8 17 -6 -4 -11 0 -11 9 0 9 5 13 11 9 8 -4 9 1 4 16 -9 29 8 40 63 40 48 0 48 0 57 -87 l6 -63 -28 -1 c-15 -1 -39 -5 -53 -10 -18 -6 -10 -7 28 -3 29 2 52 1 52 -5 0 -16 -30 -21 -135 -21 l-103 0 14 -30 c19 -37 27 -39 18 -5 -6 24 -4 25 30 23 20 -2 36 -6 36 -10 0 -5 7 -8 15 -8 8 0 15 4 15 10 0 5 24 9 54 9 30 -1 63 2 75 6 20 6 21 4 17 -52 l-5 -58 11 58 11 57 59 0 c53 0 58 2 59 23 1 21 1 21 9 -3 8 -24 8 -24 9 -2 1 20 6 22 53 22 28 0 48 3 44 7 -3 4 -28 7 -54 7 l-47 1 -6 70 c-3 39 -6 61 -7 50 -2 -17 -4 -18 -12 -5 -7 10 -9 -3 -8 -45 l1 -60 7 45 7 45 1 -52 2 -53 -44 0 c-25 0 -48 -5 -52 -12 -5 -8 4 -9 34 -5 24 4 43 3 47 -3 10 -16 -17 -21 -81 -18 -47 3 -55 5 -39 13 19 9 19 15 11 85 l-10 75 -10 -75 -10 -75 -7 50 c-13 89 -11 102 14 109 12 3 80 8 149 12 l127 6 7 -26 c3 -15 4 -54 2 -86 -2 -33 0 -60 5 -60 4 0 7 38 5 85 -3 82 -2 85 20 85 12 0 22 5 22 11 0 7 -10 9 -25 7 -25 -5 -25 -4 -25 63 0 44 -4 69 -11 69 -8 0 -9 -15 -5 -45 l7 -45 -33 2 c-18 1 -55 1 -82 0 -38 -2 -47 -5 -42 -17 4 -12 -4 -15 -42 -17 l-47 -1 50 -7 c59 -8 58 -9 -17 -16 -54 -5 -58 -4 -58 15 0 19 6 21 52 21 28 0 48 3 44 7 -4 4 -29 8 -54 8 l-47 0 -5 63 c-4 51 -7 61 -17 51z m297 -139 c0 -18 -6 -20 -72 -19 -40 0 -67 3 -60 6 6 2 12 11 12 19 0 10 15 14 60 14 53 0 60 -2 60 -20z m-323 -20 c2 -18 -4 -20 -58 -20 -44 0 -59 4 -59 14 0 16 23 22 80 25 29 1 36 -3 37 -19z m43 5 c0 -8 -8 -15 -17 -14 -13 0 -14 2 -4 6 11 5 11 7 0 14 -11 7 -10 9 4 9 9 0 17 -7 17 -15z"/> <path d="M1188 383 c12 -2 30 -2 40 0 9 3 -1 5 -23 4 -22 0 -30 -2 -17 -4z"/> <path d="M1103 485 c0 -27 2 -38 4 -22 2 15 2 37 0 50 -2 12 -4 0 -4 -28z"/> <path d="M1984 509 c21 -13 86 -30 86 -23 0 6 -37 19 -75 28 -26 5 -27 5 -11 -5z"/> <path d="M928 498 c-2 -7 -1 -31 3 -53 6 -40 6 -39 8 13 1 51 -3 65 -11 40z"/> <path d="M2085 491 c-2 -5 4 -11 15 -14 11 -3 20 -2 20 3 0 12 -28 21 -35 11z"/> <path d="M765 477 c-4 -10 -5 -21 -1 -24 10 -10 18 4 13 24 -4 17 -4 17 -12 0z"/> <path d="M2022 455 c0 -11 4 -31 8 -45 l8 -25 0 25 c0 14 -3 34 -8 45 -9 20 -9 20 -8 0z"/> <path d="M1470 429 c-21 -6 -18 -7 17 -8 23 -1 44 3 47 8 7 10 -29 11 -64 0z"/> <path d="M752 398 c1 -25 6 -38 15 -38 16 0 16 0 -1 41 l-15 34 1 -37z"/> <path d="M1345 410 c-3 -5 3 -10 14 -10 12 0 21 5 21 10 0 6 -6 10 -14 10 -8 0 -18 -4 -21 -10z"/> <path d="M1473 403 c15 -2 37 -2 50 0 12 2 0 4 -28 4 -27 0 -38 -2 -22 -4z"/> <path d="M83 355 c0 -27 2 -38 4 -22 2 15 2 37 0 50 -2 12 -4 0 -4 -28z"/> <path d="M2090 375 c0 -14 2 -25 4 -25 2 0 6 11 8 25 3 14 1 25 -3 25 -5 0 -9 -11 -9 -25z"/> <path d="M1550 383 c0 -5 5 -15 10 -23 8 -12 10 -11 10 8 0 12 -4 22 -10 22 -5 0 -10 -3 -10 -7z"/> <path d="M1458 373 c6 -2 10 -8 8 -12 -3 -4 -1 -13 4 -21 7 -11 11 -11 24 -1 27 23 19 41 -16 40 -18 0 -27 -3 -20 -6z"/> <path d="M713 350 c1 -11 5 -20 9 -20 11 0 10 28 -1 35 -6 3 -9 -4 -8 -15z"/> <path d="M1346 361 c-4 -5 14 -9 39 -9 25 1 48 5 51 10 3 4 -15 8 -40 8 -25 0 -47 -4 -50 -9z"/> <path d="M755 340 c3 -5 1 -10 -5 -10 -6 0 -8 -4 -5 -10 10 -16 22 -12 28 10 3 13 0 20 -10 20 -8 0 -11 -4 -8 -10z"/> <path d="M1313 275 c0 -38 2 -53 4 -32 2 20 2 52 0 70 -2 17 -4 1 -4 -38z"/> <path d="M1396 307 c-9 -22 -15 -46 -13 -55 2 -11 9 -3 21 23 9 21 15 46 13 55 -3 9 -10 0 -21 -23z"/> <path d="M1431 300 c-4 -66 -15 -94 -35 -98 -13 -3 -16 0 -10 10 6 10 5 11 -7 1 -8 -7 -32 -13 -52 -15 -20 -1 -37 -6 -37 -10 0 -4 5 -8 10 -8 6 0 10 -4 10 -9 0 -6 -8 -9 -17 -7 -10 1 -45 0 -78 -4 l-60 -7 58 -2 57 -1 2 -47 1 -48 7 50 c4 28 8 41 9 30 2 -20 2 -20 10 0 8 19 9 18 13 -5 5 -23 5 -23 7 -2 1 16 7 22 26 22 31 0 31 -1 1 -45 -20 -29 -25 -32 -29 -18 -3 10 -6 -2 -7 -27 -1 -35 -3 -41 -10 -25 -8 18 -9 17 -9 -8 -1 -46 20 -27 64 56 22 42 43 77 47 77 4 0 5 -26 2 -59 -4 -39 -3 -61 5 -65 19 -12 12 -25 -16 -29 -26 -4 -26 -4 5 -6 l32 -1 0 91 c0 88 1 90 23 89 41 -4 77 0 77 8 0 4 -20 6 -45 4 l-44 -4 -4 79 c-2 51 -4 62 -6 33z m-35 -126 c-21 -15 -76 -19 -76 -6 0 14 7 17 52 19 39 1 41 0 24 -13z"/> <path d="M1293 270 c0 -36 2 -50 4 -32 2 17 2 47 0 65 -2 17 -4 3 -4 -33z"/> <path d="M103 273 c-7 -2 -12 -17 -12 -31 1 -21 2 -23 6 -7 3 11 13 25 22 32 16 12 7 16 -16 6z"/> <path d="M2060 258 c0 -15 5 -30 11 -34 6 -3 9 -15 6 -25 -3 -11 -1 -17 4 -13 13 8 11 44 -2 44 -6 0 -9 6 -6 13 3 8 1 20 -4 28 -6 10 -9 7 -9 -13z"/> <path d="M790 169 c-33 -6 -33 -6 13 -8 26 0 47 3 47 7 0 10 -12 10 -60 1z"/> <path d="M50 147 c0 -13 -5 -28 -12 -35 -14 -14 0 -16 21 -3 19 12 23 61 5 61 -8 0 -14 -10 -14 -23z"/> <path d="M1474 135 c-10 -8 -14 -14 -9 -14 6 0 19 6 29 14 11 8 15 15 10 15 -6 0 -19 -7 -30 -15z"/> <path d="M1563 115 c0 -22 2 -30 4 -17 2 12 2 30 0 40 -3 9 -5 -1 -4 -23z"/> <path d="M1580 121 c0 -15 -3 -49 -6 -75 l-7 -46 54 2 54 2 -47 3 -47 4 6 70 c3 38 3 69 -1 69 -3 0 -6 -13 -6 -29z"/> <path d="M1123 77 c2 -57 17 -95 17 -42 0 16 4 24 11 20 7 -5 8 5 3 32 -9 50 -14 54 -15 12 l-2 -34 -7 35 c-7 29 -8 25 -7 -23z"/> <path d="M972 58 c-2 -52 0 -58 18 -58 11 0 20 4 20 10 0 5 -7 7 -14 4 -12 -4 -16 6 -19 48 l-3 53 -2 -57z"/> <path d="M1998 103 c12 -2 30 -2 40 0 9 3 -1 5 -23 4 -22 0 -30 -2 -17 -4z"/> <path d="M2063 95 c-3 -9 -3 -19 1 -22 3 -4 6 0 6 8 0 11 2 11 10 -1 8 -12 10 -11 10 8 0 25 -18 30 -27 7z"/> <path d="M842 58 c-1 -26 -7 -48 -14 -51 -7 -3 -3 -4 10 -4 12 1 22 7 22 13 0 7 8 15 19 19 24 7 56 43 47 53 -4 4 -18 -5 -31 -20 -31 -36 -43 -35 -48 5 -3 25 -4 22 -5 -15z"/> <path d="M823 55 c0 -22 2 -30 4 -17 2 12 2 30 0 40 -3 9 -5 -1 -4 -23z"/> <path d="M69 65 c-13 -22 -19 -65 -9 -65 6 0 13 6 16 14 7 19 1 64 -7 51z"/> <path d="M1930 38 c0 -21 2 -38 4 -38 9 0 12 50 5 62 -6 8 -9 -1 -9 -24z"/> <path d="M2048 33 c-3 -19 0 -31 6 -30 13 2 29 37 21 45 -3 3 -5 -1 -6 -9 0 -8 -4 -5 -8 6 -7 17 -9 15 -13 -12z"/> <path d="M1260 28 c0 -16 5 -28 10 -28 13 0 13 20 0 40 -8 12 -10 9 -10 -12z"/> <path d="M1894 42 c-7 -4 -8 -15 -3 -27 8 -20 8 -20 9 0 1 20 1 20 10 0 8 -18 9 -17 9 8 1 28 -5 32 -25 19z"/> <path d="M1452 22 c2 -9 12 -18 22 -20 11 -2 16 0 12 6 -4 6 1 15 10 20 12 7 9 9 -16 10 -24 0 -30 -3 -28 -16z"/> </g> </svg> 